# This file uses centimeters as units for non-parametric coordinates.

mtllib g.mtl
g default
v -1.561166 4.921646 -0.068301
v 1.584435 4.921646 -0.068301
v -1.561166 5.704535 -0.068301
v 1.584435 5.704535 -0.068301
v -1.561167 5.704535 -0.111481
v 1.584433 5.704535 -0.111481
v -1.561167 4.921646 -0.111481
v 1.584433 4.921646 -0.111481
vt 0.029109 0.041762
vt 0.634119 0.033573
vt 0.030654 0.248352
vt 0.635664 0.240163
vt 0.645678 0.251427
vt 0.009130 0.251427
vt 0.645678 0.027949
vt 0.009130 0.027949
vt 0.500000 0.000000
vt 0.250000 0.000000
vt 0.000000 1.000000
vt 0.000000 0.750000
vt 0.983952 1.000000
vt 0.983952 0.750000
vn 0.000000 0.000000 1.000000
vn 0.000000 0.000000 1.000000
vn 0.000000 0.000000 1.000000
vn 0.000000 0.000000 1.000000
vn 0.000000 1.000000 0.000001
vn 0.000000 1.000000 0.000001
vn 0.000000 1.000000 0.000001
vn 0.000000 1.000000 0.000001
vn 0.000000 0.000000 -1.000000
vn 0.000000 0.000000 -1.000000
vn 0.000000 0.000000 -1.000000
vn 0.000000 0.000000 -1.000000
vn 0.000000 -1.000000 0.000001
vn 0.000000 -1.000000 0.000001
vn 0.000000 -1.000000 0.000001
vn 0.000000 -1.000000 0.000001
vn 1.000000 0.000000 -0.000035
vn 1.000000 0.000000 -0.000035
vn 1.000000 0.000000 -0.000035
vn 1.000000 0.000000 -0.000035
vn -1.000000 0.000000 0.000030
vn -1.000000 0.000000 0.000030
vn -1.000000 0.000000 0.000030
vn -1.000000 0.000000 0.000030
s off
g pCube1
usemtl phongE5SG
f 1/1/1 2/2/2 4/4/3 3/3/4
f 3/3/5 4/4/6 6/6/7 5/5/8
f 5/5/9 6/6/10 8/8/11 7/7/12
f 7/7/13 8/8/14 2/10/15 1/9/16
f 2/2/17 8/11/18 6/12/19 4/4/20
f 7/13/21 1/1/22 3/3/23 5/14/24
g default
v -0.061353 -0.036824 0.061169
v 0.061353 -0.036824 0.061169
v -0.061353 6.076760 0.061169
v 0.061353 6.076760 0.061169
v -0.061353 6.076760 -0.061169
v 0.061353 6.076760 -0.061169
v -0.061353 -0.036824 -0.061169
v 0.061353 -0.036824 -0.061169
vt 0.375000 0.000000
vt 0.625000 0.000000
vt 0.375000 0.250000
vt 0.625000 0.250000
vt 0.375000 0.500000
vt 0.625000 0.500000
vt 0.375000 0.750000
vt 0.625000 0.750000
vt 0.375000 1.000000
vt 0.625000 1.000000
vt 0.875000 0.000000
vt 0.875000 0.250000
vt 0.125000 0.000000
vt 0.125000 0.250000
vn 0.000000 0.000000 1.000000
vn 0.000000 0.000000 1.000000
vn 0.000000 0.000000 1.000000
vn 0.000000 0.000000 1.000000
vn 0.000000 1.000000 0.000000
vn 0.000000 1.000000 0.000000
vn 0.000000 1.000000 0.000000
vn 0.000000 1.000000 0.000000
vn 0.000000 0.000000 -1.000000
vn 0.000000 0.000000 -1.000000
vn 0.000000 0.000000 -1.000000
vn 0.000000 0.000000 -1.000000
vn 0.000000 -1.000000 0.000000
vn 0.000000 -1.000000 0.000000
vn 0.000000 -1.000000 0.000000
vn 0.000000 -1.000000 0.000000
vn 1.000000 0.000000 0.000000
vn 1.000000 0.000000 0.000000
vn 1.000000 0.000000 0.000000
vn 1.000000 0.000000 0.000000
vn -1.000000 0.000000 0.000000
vn -1.000000 0.000000 0.000000
vn -1.000000 0.000000 0.000000
vn -1.000000 0.000000 0.000000
s off
g pCube2
usemtl lambert5SG
f 9/15/25 10/16/26 12/18/27 11/17/28
f 11/17/29 12/18/30 14/20/31 13/19/32
f 13/19/33 14/20/34 16/22/35 15/21/36
f 15/21/37 16/22/38 10/24/39 9/23/40
f 10/16/41 16/25/42 14/26/43 12/18/44
f 15/27/45 9/15/46 11/17/47 13/28/48
g default
v -0.166362 4.129568 1.572799
v -0.166362 4.129568 -1.572802
v -0.166362 4.912457 1.572799
v -0.166362 4.912457 -1.572802
v -0.209542 4.912457 1.572800
v -0.209542 4.912457 -1.572800
v -0.209542 4.129568 1.572800
v -0.209542 4.129568 -1.572800
vt 0.014817 0.719335
vt 0.756613 0.714603
vt 0.015699 0.969332
vt 0.757494 0.964600
vt 0.768506 0.978048
vt 0.012828 0.978048
vt 0.768506 0.717498
vt 0.012828 0.717498
vt 0.500000 0.729657
vt 0.250000 0.729657
vt 0.000000 1.000000
vt 0.000000 0.750000
vt 0.994944 1.000000
vt 0.994944 0.750000
vn 1.000000 0.000000 0.000000
vn 1.000000 0.000000 0.000000
vn 1.000000 0.000000 0.000000
vn 1.000000 0.000000 0.000000
vn 0.000001 1.000000 0.000000
vn 0.000001 1.000000 0.000000
vn 0.000001 1.000000 0.000000
vn 0.000001 1.000000 0.000000
vn -1.000000 0.000000 -0.000000
vn -1.000000 0.000000 -0.000000
vn -1.000000 0.000000 -0.000000
vn -1.000000 0.000000 -0.000000
vn 0.000001 -1.000000 0.000000
vn 0.000001 -1.000000 0.000000
vn 0.000001 -1.000000 0.000000
vn 0.000001 -1.000000 0.000000
vn -0.000035 0.000000 -1.000000
vn -0.000035 0.000000 -1.000000
vn -0.000035 0.000000 -1.000000
vn -0.000035 0.000000 -1.000000
vn 0.000030 0.000000 1.000000
vn 0.000030 0.000000 1.000000
vn 0.000030 0.000000 1.000000
vn 0.000030 0.000000 1.000000
s off
g pasted__pCube1 group
usemtl pasted__phongE4SG
f 17/29/49 18/30/50 20/32/51 19/31/52
f 19/31/53 20/32/54 22/34/55 21/33/56
f 21/33/57 22/34/58 24/36/59 23/35/60
f 23/35/61 24/36/62 18/38/63 17/37/64
f 18/30/65 24/39/66 22/40/67 20/32/68
f 23/41/69 17/29/70 19/31/71 21/42/72
